<svg width="740" height="460" viewBox="0 0 740 460" fill="none" xmlns="http://www.w3.org/2000/svg">
<path d="M102.51 261.408V354.499H113.056V283.772H113.965L143.056 354.499H153.237L182.328 283.772H183.237V354.499H193.783V261.408H180.328L148.692 338.681H147.601L115.965 261.408H102.51ZM316.894 290.499C313.44 271.408 298.167 260.135 279.44 260.135C255.622 260.135 238.349 278.499 238.349 307.953C238.349 337.408 255.622 355.772 279.44 355.772C298.167 355.772 313.44 344.499 316.894 325.408H305.622C302.894 338.317 291.803 345.226 279.44 345.226C262.531 345.226 249.258 332.135 249.258 307.953C249.258 283.772 262.531 270.681 279.44 270.681C291.803 270.681 302.894 277.59 305.622 290.499H316.894ZM364.528 261.408H352.71L386.892 354.499H398.528L432.71 261.408H420.892L393.256 339.772H392.165L364.528 261.408ZM472.81 354.499H529.719V344.499H484.083V312.863H526.083V302.863H484.083V271.408H528.992V261.408H472.81V354.499ZM566.91 261.408L600.547 316.135V354.499H611.819V316.135L645.456 261.408H632.547L606.728 304.863H605.637L579.819 261.408H566.91Z" fill="white"/>
<path d="M151.158 140.475H176.07C175.86 120.346 159.83 106.734 134.813 106.734C110.216 106.734 92.5045 120.136 92.6621 140.16C92.6096 156.505 104.067 165.702 122.672 169.96L133.919 172.587C145.745 175.32 151.053 178.526 151.158 184.57C151.053 191.14 144.904 195.712 134.445 195.712C122.935 195.712 115.367 190.352 114.789 179.998H89.8766C90.192 205.173 107.693 217.208 134.76 217.208C161.564 217.208 177.436 205.067 177.541 184.623C177.436 167.437 165.821 156.925 144.588 152.248L135.338 150.146C125.563 148.043 119.361 144.785 119.571 138.373C119.624 132.487 124.669 128.229 134.76 128.229C144.904 128.229 150.475 132.802 151.158 140.475ZM190.681 215.842H216.696V172.587H259.11V215.842H285.073V108.205H259.11V151.407H216.696V108.205H190.681V215.842ZM324.674 215.842L331.769 193.242H368.927L376.022 215.842H403.982L367.666 108.205H333.031L296.714 215.842H324.674ZM337.971 173.481L349.901 135.325H350.742L362.725 173.481H337.971ZM423.617 215.842H448.634L468.027 150.566H468.868L488.262 215.842H513.331L544.602 108.205H515.906L499.614 178.894H498.72L480.168 108.205H456.727L438.175 178.737H437.281L421.041 108.205H392.293L423.617 215.842ZM646.957 108.205H620.994V170.222H620.1L577.739 108.205H555.35V215.842H581.366V153.719H582.049L624.883 215.842H646.957V108.205Z" fill="white"/>
<rect x="0.5" y="0.5" width="739" height="459" stroke="white"/>
</svg>
