<svg width="740" height="461" viewBox="0 0 740 461" fill="none" xmlns="http://www.w3.org/2000/svg">
<path d="M102.51 261.909V355H113.056V284.273H113.965L143.056 355H153.237L182.328 284.273H183.237V355H193.783V261.909H180.328L148.692 339.182H147.601L115.965 261.909H102.51ZM316.894 291C313.44 271.909 298.167 260.636 279.44 260.636C255.622 260.636 238.349 279 238.349 308.455C238.349 337.909 255.622 356.273 279.44 356.273C298.167 356.273 313.44 345 316.894 325.909H305.622C302.894 338.818 291.803 345.727 279.44 345.727C262.531 345.727 249.258 332.636 249.258 308.455C249.258 284.273 262.531 271.182 279.44 271.182C291.803 271.182 302.894 278.091 305.622 291H316.894ZM364.528 261.909H352.71L386.892 355H398.528L432.71 261.909H420.892L393.256 340.273H392.165L364.528 261.909ZM472.81 355H529.719V345H484.083V313.364H526.083V303.364H484.083V271.909H528.992V261.909H472.81V355ZM566.91 261.909L600.547 316.636V355H611.819V316.636L645.456 261.909H632.547L606.728 305.364H605.637L579.819 261.909H566.91Z" fill="white"/>
<path d="M151.158 140.634H176.07C175.86 120.504 159.83 106.892 134.813 106.892C110.216 106.892 92.5045 120.294 92.6621 140.318C92.6096 156.663 104.067 165.861 122.672 170.118L133.919 172.746C145.745 175.479 151.053 178.685 151.158 184.729C151.053 191.298 144.904 195.871 134.445 195.871C122.935 195.871 115.367 190.51 114.789 180.156H89.8766C90.192 205.331 107.693 217.366 134.76 217.366C161.564 217.366 177.436 205.226 177.541 184.781C177.436 167.595 165.821 157.084 144.588 152.406L135.338 150.304C125.563 148.202 119.361 144.943 119.571 138.531C119.624 132.645 124.669 128.388 134.76 128.388C144.904 128.388 150.475 132.96 151.158 140.634ZM190.681 216H216.696V172.746H259.11V216H285.073V108.364H259.11V151.565H216.696V108.364H190.681V216ZM324.674 216L331.769 193.401H368.927L376.022 216H403.982L367.666 108.364H333.031L296.714 216H324.674ZM337.971 173.639L349.901 135.483H350.742L362.725 173.639H337.971ZM423.617 216H448.634L468.027 150.724H468.868L488.262 216H513.331L544.602 108.364H515.906L499.614 179.053H498.72L480.168 108.364H456.727L438.175 178.895H437.281L421.041 108.364H392.293L423.617 216ZM646.957 108.364H620.994V170.381H620.1L577.739 108.364H555.35V216H581.366V153.878H582.049L624.883 216H646.957V108.364Z" fill="white"/>
<rect x="0.5" y="0.5" width="739" height="460" stroke="white"/>
</svg>
